# xmcd
#
# Track frame offsets:
#	150
#	27950
#	49616
#	70930
#
# Disc length: 1218 seconds
#
# Revision: 0
# Processed by: cddbd v1.5.1PL2 Copyright (c) Steve Scherf et al.
# Submitted via: dBpowerAMP V4.0
#
DISCID=2d04c004
DTITLE=Bert Deivert - ACOUSTIC BLUES DEMO
DYEAR=2006
DGENRE=Blues
TTITLE0=Track01 Levee Camp Moan
TTITLE1=Track02 Diving Duck
TTITLE2=Track03 Broke And Hungry
TTITLE3=Track04 Come Back Baby
EXTD=Demo-CD
EXTT0=
EXTT1=
EXTT2=
EXTT3=
PLAYORDER=
